<svg xmlns="http://www.w3.org/2000/svg" width="256" height="256"><path fill="#1976D2" fill-opacity=".016" fill-rule="evenodd" d="M0 128.004v128.004l128.25-.254 128.25-.254.254-127.75L257.008 0H0v128.004m.485.496c0 70.4.119 99.053.265 63.672.146-35.38.146-92.98 0-128C.604 29.153.485 58.1.485 128.5"/><path fill="#1976D2" fill-opacity=".47" fill-rule="evenodd" d="M56.469 45.82c-.533.472-5.019 2.554-9.969 4.626-4.95 2.072-9.358 4.1-9.795 4.506-.437.406 4.666 5.602 11.34 11.547l12.134 10.809 15.661.792c51.051 2.581 72.834 2.332 109.644-1.253l10.985-1.069 10.809-9.009c5.944-4.956 10.655-9.471 10.466-10.036-.188-.564-4.145-3.322-8.793-6.129L200.5 45.5l-71.531-.269c-39.342-.148-71.967.117-72.5.589M13.634 69.595C6.135 75.381.011 80.426.025 80.807c.028.782 47.872 18.685 48.319 18.081C49.222 97.703 55 82.844 55 81.773c0-.7-1.463-2.417-3.25-3.814a3671.165 3671.165 0 0 0-13.866-10.712l-10.616-8.17-13.634 10.518m208.805-5.725c-21.792 16.646-21.601 16.471-21.041 19.321.992 5.049 6.529 16.05 7.84 15.574 13.2-4.793 46.392-17.244 46.762-17.542.631-.508-10.408-9.372-25.968-20.853-1.23-.907-2.727-.217-7.593 3.5M61.299 84.217c-1.506 1.933-6.303 14.967-5.805 15.773.467.757 9.599 1.478 38.006 3.001 9.9.531 21.263 1.253 25.25 1.605l7.25.639v-17.94l-14.75-1.143c-8.112-.629-19.925-1.384-26.25-1.677-6.325-.293-14.02-.76-17.1-1.037-3.883-.349-5.907-.11-6.601.779M166 85.058c-14.025.988-27.863 1.829-30.75 1.869L130 87v9c0 7.913.211 8.997 1.75 8.978.963-.012 13.225-.677 27.25-1.478 14.025-.801 28.961-1.466 33.191-1.478 4.23-.012 7.942-.428 8.249-.924.306-.496-.852-4.771-2.575-9.5-2.247-6.17-3.589-8.561-4.748-8.467-.89.072-13.092.939-27.117 1.927M2 90.657c0 .981 105.302 106.375 105.792 105.885.513-.513-11.868-19.052-45.107-67.542a3510.899 3510.899 0 0 1-12.329-18.098l-4.447-6.597-21.298-7.153C2.457 89.713 2 89.581 2 90.657m230.086 6.298c-11.227 3.811-21.19 7.742-22.139 8.736-1.711 1.794-61.919 89.556-63.808 93.01-1.154 2.111 99.899-99.369 107.778-108.232.984-1.108-2.534-.062-21.831 6.486m-176.809 10.3c.269.685 10.021 15.42 21.673 32.745a150943.17 150943.17 0 0 1 34.367 51.124l13.183 19.625.676-4.125c.372-2.268.709-24.632.75-49.698l.074-45.573-15.75-1.24c-8.662-.681-22.725-1.646-31.25-2.142-8.525-.497-17.46-1.142-19.855-1.433-3.231-.392-4.229-.207-3.868.717m124.223.424c-3.3.186-15.269 1.01-26.597 1.83-11.328.82-21.115 1.491-21.75 1.491-.855 0-1.153 12.903-1.153 50 0 27.5.338 49.987.75 49.971.893-.035 68.108-100.321 68.488-102.185.277-1.358-7.543-1.797-19.738-1.107"/><path fill="#1976D2" fill-opacity=".278" fill-rule="evenodd" d="M48.724 50.192c-5.926 2.835-10.617 5.639-10.425 6.231.315.967 6.471 6.41 18.34 16.216l4.139 3.42 23.861 1.455c30.54 1.862 57.773 1.859 82.361-.01 30.992-2.356 27.958-1.495 39.739-11.273 5.644-4.684 10.261-8.84 10.261-9.237 0-1.239-7.205-5.771-14.228-8.949L196.044 45l-68.272.019-68.272.02-10.776 5.153M23 62.937c-1.925 1.56-7.867 6.213-13.206 10.34L.089 80.78l21.705 8.227C33.733 93.532 44.625 97.441 46 97.693c2.309.423 2.728-.139 5.496-7.368 1.647-4.304 3.13-8.11 3.294-8.458.326-.69-24.918-20.634-27.005-21.334-.707-.238-2.86.845-4.785 2.404m191.813 7.387c-6.978 5.597-12.971 10.469-13.317 10.827-.347.357 1.025 4.463 3.049 9.122l3.68 8.472 4.637-1.739 22.638-8.492c9.9-3.714 18.38-7.102 18.845-7.528.777-.714-24.738-21.08-26.199-20.912-.355.041-6.355 4.654-13.333 10.25M188.5 84.044c-2.2.447-15.7 1.314-30 1.926-14.3.611-26.562 1.304-27.25 1.539-.861.295-1.25 2.929-1.25 8.46V104l6.25-.022c3.438-.012 17.725-.677 31.75-1.478 14.025-.801 26.963-1.466 28.75-1.478 1.787-.012 3.25-.487 3.25-1.054 0-1.843-6.125-16.972-6.823-16.853-.372.063-2.477.481-4.677.929M58.515 91.548c-1.514 4.151-2.455 7.845-2.092 8.208.363.364 7.279.993 15.369 1.399 8.089.406 20.511 1.212 27.603 1.792 7.093.579 15.755 1.053 19.25 1.053H125v-7.5c0-4.125.008-7.838.018-8.25.019-.803-43.472-4.033-56.134-4.169L61.268 84l-2.753 7.548M2.142 90.491c13.821 14.405 104.351 104.419 103.624 103.032-.584-1.113-14.273-21.417-30.42-45.122l-29.359-43.099-10.243-3.809C30.11 99.398 23.025 96.889 20 95.918c-14.169-4.55-18.188-5.772-17.858-5.427M236.5 95.932c-9.35 3.199-19.116 6.661-21.702 7.692-4.589 1.831-5.429 2.939-35.141 46.376-16.742 24.475-30.264 44.687-30.048 44.917.215.229.504.211.641-.04s23.648-23.951 52.246-52.667c28.598-28.715 51.773-52.184 51.5-52.153-.273.032-8.146 2.675-17.496 5.875M56 107.316c0 .333 10.38 16.035 23.066 34.894 12.686 18.86 28.099 41.848 34.25 51.086l11.184 16.797.26-48.704c.142-26.787.112-48.85-.068-49.03-.468-.468-30.263-3.128-42.692-3.811-5.775-.317-13.987-.86-18.25-1.206s-7.75-.358-7.75-.026m124.5.759c-6.05.436-18.875 1.291-28.5 1.9s-18.434 1.302-19.576 1.541c-2.066.433-2.077.679-2.171 49.459-.052 26.964.207 49.017.576 49.007.916-.024 68.171-100.564 68.171-101.909 0-1.179-2.129-1.178-18.5.002"/><path fill="#1976D2" fill-opacity=".198" fill-rule="evenodd" d="m13.754 70.736-12.746 9.71 7.246 2.836c3.985 1.559 7.989 2.999 8.898 3.2.909.201 3.046 1.086 4.75 1.967C23.606 89.33 25 89.799 25 89.49c0-.308.855-.103 1.901.457 1.045.559 6.239 2.587 11.542 4.507 8.716 3.155 9.696 3.325 10.217 1.768.316-.947 1.685-4.593 3.042-8.102 2.052-5.31 2.242-6.6 1.132-7.686-3.24-3.169-24.433-19.402-25.334-19.405-.55-.002-6.736 4.367-13.746 9.707M216 70.107c-6.325 4.995-12.113 9.669-12.863 10.386-1.146 1.097-.877 2.554 1.691 9.156 1.79 4.603 3.595 7.786 4.363 7.693 1.324-.159 10.73-3.492 20.809-7.374 3.025-1.165 6.625-2.5 8-2.968 5.195-1.767 12.691-4.728 14.425-5.698 1.584-.886 1.111-1.539-3.912-5.405a1631.593 1631.593 0 0 1-12.363-9.641c-3.657-2.885-7.1-5.242-7.65-5.238-.55.004-6.175 4.094-12.5 9.089M60.894 86.75a559.787 559.787 0 0 0-2.34 6.25c-.707 1.925-1.587 4.205-1.956 5.068-.59 1.375 2.43 1.779 24.615 3.293 13.908.949 29.45 1.819 34.537 1.932l9.251.207-.001-7.67v-7.671l-6.25-.546c-3.437-.301-12.159-.814-19.382-1.139-7.223-.326-15.998-1.007-19.5-1.513-3.502-.507-8.967-.93-12.143-.941-5.385-.019-5.846.166-6.831 2.73m126.023-2.351c-.229.22-9.642.915-20.917 1.545-11.275.631-23.762 1.389-27.75 1.686l-7.25.541v15.553l3.25-.278c1.787-.153 10.675-.553 19.75-.889 9.075-.336 21.9-1.038 28.5-1.56 6.6-.522 13.178-.96 14.618-.973l2.618-.024-2.243-6.25c-3.574-9.959-3.426-9.75-6.933-9.75-1.775 0-3.414.18-3.643.399M18.592 106.295c8.239 8.363 31.101 31.405 50.805 51.205l35.825 36-14.844-22c-42.261-62.636-44.877-66.258-48.657-67.366-1.771-.519-6.371-2.14-10.221-3.603-7.191-2.73-10.298-3.799-21.443-7.375l-6.444-2.067 14.979 15.206m221.908-11.4c-6.05 2.086-13.025 4.573-15.5 5.527-2.475.953-6.62 2.402-9.212 3.22-5.087 1.604-5.314 1.862-17.956 20.358l-15.162 22.191c-4.769 6.981-8.67 13.168-8.67 13.75 0 .583-.371 1.059-.825 1.059-.454 0-3.709 4.387-7.234 9.75-3.524 5.363-6.658 9.975-6.963 10.25-.305.275-2.494 3.425-4.863 7-3.525 5.317 1.668.492 28.538-26.522 45.846-46.09 69.856-70.487 69.312-70.428-.256.028-5.415 1.758-11.465 3.845M81.113 144.323c13.749 20.448 28.794 42.915 33.434 49.927 4.639 7.013 8.894 12.75 9.454 12.75.681 0 .932-15.676.759-47.25l-.26-47.25-4.5-.684c-2.475-.376-10.125-.945-17-1.266-11.046-.515-32.657-2.041-43.192-3.05l-3.692-.353 24.997 37.176M189.5 108.161c-3.85.418-16.068 1.219-27.152 1.78-11.083.56-22.671 1.314-25.75 1.676l-5.598.658v48.563c0 26.709.366 48.135.814 47.612.979-1.143 22.843-33.675 29.186-43.428 2.475-3.805 9.9-14.902 16.5-24.659s12.225-18.228 12.5-18.823c.275-.596 1.987-3.215 3.804-5.82 1.817-2.605 2.985-5.253 2.595-5.883-.421-.681-.268-.874.377-.475.597.369 1.339.26 1.649-.241.927-1.499-1.533-1.763-8.925-.96"/></svg>